<svg xmlns="http://www.w3.org/2000/svg" style="background: #ffffff; background-color: light-dark(#ffffff, #121212);" xmlns:xlink="http://www.w3.org/1999/xlink" version="1.1" width="886px" height="604px" viewBox="-0.5 -0.5 886 604" content="&lt;mxfile pages=&quot;8&quot;&gt;&lt;diagram name=&quot;Page-1&quot; id=&quot;NPxXaJfwpVurCbO29cdE&quot;&gt;7VfbctowEP0aHsn4xiWPgYa0nTaThrRMH4W12GptySMLA/367toyxphMLzOkZdoXWB9pLzpnJcs9f5pu7zTL4veKQ9LzHL7t+a96nucOAhf/CNlZxB2MKiTSgleY0wBz8Q3sxBpdCw65xSrIKJUYkbXBUEkJoWlhTGu1aU9bqYS3gIxF0AHmIUu66EJwE9fLcJxm4DWIKLapxwM7kLJ6sgXymHG1OYD8254/1UqZykq3U0iIvTYvs2dG94VpkOZnHPJpapZ8sYPH3epD0f88nwyf+sNxFaZgydquODaGuL2hSN4sTNSaX4llehWqFJ+5CnP8K7Kw/0WttQQUdmZUJkL0PkD7ZDNeMBkC70MCKZaZWybMrqbXwBaLn8QmTRBw0WSJiCTaIc4HjUAB2ggU5MYOpIJzcp9sYmFgnrGQYm2w/xDTai050IodfOpSZFmjmLA9gCxld6BSMHqHU+pRL7D62Q4ej4PqedO0QzC2c+KDTvAtxmwHRvvYjUhoWJ1+RbPrc2rGhcZ9lAj59RLFGrTFCkZOVyz3JcWqC/gv1g/Fcgd/WqxrtyPWQmApnvOkmcyFQevTA8bGAoYsJVqqX8LvZ5enQTBuKTAcex0F9qq8jALe7yvw8HD/bnJ5GhzvAtftbgPPOZMIkufLVfHW/cj9RzxR5qNJWPT9jgZIdkIsclGgGZHpa05xcrrcQZaonZARXc5iRoRkCRJqhJK1J51sjfOJeDW01MdI2/XNipYsKXmpX6ZFDpRSq6K8KtIoVZaRxbmGnLB+2TK+201TBjQxHAfkqgwmFfXchklTXj3LTKLgsHcqE62U3gOsWT1l5dXx7GDoVEiES54E1Qg8Igc8yfdregTsnHpB290Jov6qcu2ee066BplW93NRCEO9H5YaLeEgYVlSkT3bMZe2r4Pg+PUWnHi/DU9sbHd0rp3tBf/c8XqswnB4vuMVH5vvuXLs4LPYv/0O&lt;/diagram&gt;&lt;diagram id=&quot;YgesPKr75ywDXHmCdNDX&quot; name=&quot;Page-2&quot;&gt;7VxtU6M6FP41/VgHEgLlo6111xnvjLPO3PV+2sE2bVkp6YT0zV9/k5JQIFhQKdhddnUkhwSS5zx5cnoS7cHRcveNeqvFP2SKgx4wprsevOkBAGzL5D+EZR9bTBM5sWVO/WlsM46GR/8Vy4rKuvanOJK22MQICZi/yhonJAzxhGVsHqVkm602I8E0Y1h5c6wZHideoFt/+lO2UMMwjOON79ifL+SrB0jeePYmL3NK1qF8Xw/A2eFffHvpqWfJ+tHCm5JtygTHPTiihLD4arkb4UCAm4Xt9o27Sb8pDlmVBj9+/7j7ia4X7vdvEVw9uZtnuO/Lp2y8YC3xGHrhi+ww2yuQDsPE4kFGDw63C5/hx5U3EXe3nBfctmDLgJdMfukF/jzk1wGe8Y4NN5gyn+N9Lc2MiPp671VXeHW8S5nkaL5hssSM7nkVebfvDiS0insK6m3KkQMU2xYpHwJXVvQkeebJw48A8guJ4TvwBBp0eMrpJouEsgWZk9ALxkfr8AiuQO9Y554IpA7G35ixvZw73pqRLOB457On1PV/wk9XAMnizU767VDYq0LIx/uULsTNkCoemx1K+9RDHjD1OV6YSttkTTcJO970bETWdIJPkdGW89+jc8xOoSxhFtieZArFgcf8TXaqFzldNn0gPu/0kWGOnWUYsHPEicckmx25c02pt09VW4kK0YkXIdfNvkiq6G3lBo6RI2/chzea28gobJ70OPaBNrDDpEgA/vg8gZruaBNH6ca994yDBxL5zCdCP54JY2SZnQHFGqOEaMKZKLg6jBglL3hEAiKYG5JQTL+ZHwTKxDXcMIbjWyAqL7yV6MpyNxdL35X3uqb46vCoFfUj0fTgVkzHGyy8G3elFmFzrKywWZYmbNDQdQ2dS9YszV13j/9yg6l57WuuFBZEpSsFtAoQPd9KgTRIx+Hmk3jWARVnURYqWLCoGgVQDc6FlF2ElK4XrSMFWkfKKUIKfj2kYFGg1ihSAw2UJuK0D4ZcmfCqONg7Heu96cPykEwCVRqSSQefPSJDMBfz5wOX2iIyYGdfZKP08yo0OBWR1RVHuW3wuEU+qjixlI92U3w0QHYRsN1KfKyLACqN0ilZGXOMisxxmmKOm1UyeLbPljlhgsh6n5Kpnp1VyUw99r0UIn9iea2a8VDrcM2sfDeXbPWRL8lTGKe5lG/QyKpotpOGuxAuKSVsnUswxyXbLuFSrkEzuqR/fmqRS+CrkUm5pHUyWbk4zCkjU66B5ZgNkMn6SmT6clw6z4fI93MJZdOvYFASMOUboAFsgEuo49IJLsEvwiV7kOWSC0q4lGtgO01wSc+xauSKXjCbLKQH5bj5DTTkX3wdHsXfiFcdCYtYqnRjkc3RjaZejf8wi96QNxbZHN1o6tVESfU6ayyyOUjvcb61WdDazLXmX3wirlngh3iUnHEQGM9IyFIbU/z/rXBpfsPq5gZa1kjb3ToeR4DDqRctkslXuq9WcTMtJQqip1IxTKDKkjnilV60ioc183eiH/re2jayriiOp//dRPRnyIvxVbZWiNmW0JdfM5/irSdoXkuKepDXfEtOiVSK2pIzM52hVrbaM9TqE19qSt7wIU+EVtz7BWc0FKaHOhpLTNMF40GRLzjO/qv3nDgryPEicXgpcTSKFDOpeBc2RSGrJp8ikJVSs3WfuuUym/NbMocLUctM7EIRSc3Sjzu22I/cOUw+ekk2KQblGUUJ81iqnJ/9/vPy1yQg66m46h+u+v3pgex9PqKXPuBFPOU9YHywGjFOT59yuqTYACydDcr2yXyfyknss0X1ADKbRfgsGWL1cb8Tko8LSW7TCcKWhSQZQyck5xaSZPp0QgI6IalZSFqPMkGFg3idkNQjJKAyXf50IXnrOKHOvcs4TmipbFN7xwnBpZwntCwdq2bPfoFLOVCI2ofqUk4U2gUzsGGouiOFoFIKX+0Ylu9Tt3Wm0JLbN2c/iWM5g/TzKjRoYmMJ/G2HCtVqXs7Itk4VogGoxMjafj2nO1VYkTqwKnXaOlao9g/PLma2XfYra/kGTexsQj1T1iUt3pm0yG2jWMjVYq1GkxZQT0RpbuySFrUkLWB1uvzhSQuoZ8o6IXmnkOTibNtqW0j0RFQnJGcSEliZLn+6kOiZuk5IPickqPWIpML5uU5I6hESVJkuFyskvHj8u0Bx9eNfX4Lj/wE=&lt;/diagram&gt;&lt;diagram id=&quot;5EzuPj9nu6DlDYiVtgut&quot; name=&quot;Page-3&quot;&gt;7Vttc6o4FP41frQDAQQ/Xl/avTPdne70zt1790snhahZkTghvvXXbwKJAomtWqvi2FolDyEk5zw5nBfbcLqT5QOF09GfJEJxA1jRsuH0GgDYtm/xD4GsciQInBwYUhzlkLUBnvEbklcqdIYjlEoshxghMcPTMhiSJEEhK2GQUrIodxuQOCoBUzhEGvAcwlhH/8ERG6l1WdbmxB8ID0fy1oEnT0yg6iyBdAQjsihATr9hfWuI4/LL6VJC2NbTqtNk2UWxEHZZjvf7X7heI0UJ++RY6PHfGM+cv3/Pnl9i+POvkee9NUF+gzmMZ1KsHZiMpVjYSsmaklkSITEQH7qzGGGGnqcwFGcXnF0cG7FJzFs2P4QxHib8OEYDPufOHFGGudq+SZgR0V/el59Dy61rtd9TRnW5D4hMEKMr3l5zXC5PMtx2ZXtR4EtbkmBUoAoIJAglR4frsXeSPe8jxX8cLdmaQlDE94JsEspGZEgSGPc3aGejMqGTTZ9HIuSfgf8hxlZyY8MZI2U1ci3Q1S+p8qzxWzTuPNXsLYsneyvZCmd0vqYKWmL2Sw3IjwtD8NZmBNFYFRpPiGIucUQllgtArPp9snAhkRkN0XvC9KSxgnSI2HsdwYH0oyiGDM/LU70QKjnahte4pTbsI3xF8RNJMcNEbNxXwhiZlEli3tzKAoRcOUKFnZRRMkZdEhOh0IQkgqEDHMcKagDHsjr9eyA6j+BUTGWyHIon1x18m1F0lw01pTgVl04JFs3+nKOpnMppLIpftigtV7MojsGgqEfPhZDA1Ujw/fknB3Q7U0/D3/IqanJ0w++4JsPfvixFeZqi+sn8k1o6hQKCVkUBpievZVDAhT14Wyb56xbz4uUPaip/3yR/p37ydwwGqA7yD2rreB7TYVTR7UcOo3eF/mL7HAw4uyZbV6hJlbe5beadKOBfIwVs7XmqcQJPsrxbB6bTPGs3wEuhiM60EJLze+FpigpRuikO2IR/KsEmlBnBdLTW7IAkrBADusD3Ox2OxyL27MBwPMwYqLpEaABnMZMXStLZWdDIn/c4Gf7IaOlwQK6jhydDLsYYv/J3/Drh7/NpyN9/UJjw0PYBMrSAq7t0PjxVcOJXfDNP9w1aBtdAYZfCJT112MNUUAZYj9iQQ1RhfdZHi/5tuw36gYl3FKX4Db5mw1iKGoW0xJplH+YtNF6aI1RzsqLAN/dETPE0pgQaU9xAZ4rCLoUpO+ScKmwYZD/bdFGyIGTGYpzwLqrKYJWN0eF0MbOD65fJoSdkXuBllaeUMMgK7WpaixujlzAms0gcNbOjZjPKtlCTr2jcBLyJIj4Dxhe7C92Om8UskAy4OskUtvPzbpcpbCbyJDJ8m61QzeSD8n3IYJDyp/ku/C6xfL3ck+8J9+x+9SGp+WM6YmBHR8w+1IqehpktUDHSQYWbuSTkVbUhKLiF/vvUisCXx/77kPQbpXBVGCcrl6T7jbKV8K5TtsWg7ezB6z0H99r+3oNnmyEXQR12mq0n+XXfeYxYOJL8ltrkJ7wOf/GbdfM/j3ftCuRO0FEDTZivg7bejX/YpjtUQRPm66CtdxMtNesyaMJ8T59x9WrbcLVduZq/tjiQlbiU/95zbWtRS6/nuG5X81OLHmzJWT3Q59QCl4LJrAbCWVsyxzLFU1p5dZG6d9x5zWzh91DMR/iy+VG5V4LYgtDxy4B7qQsodsBJ4iDgBFcRB+nVjLzs+smC0sWWXV3X1/RUi7KrHWiaqmfd1fV0DdSh7mS3TQr45D45hwK8mioAWCYF1LDy2jLYoFoooL7f+Tti/KWSTB8nCYKvjr/OwQHd4NW4+Lq7LtvXqEvddt7280fPn2vjgP69S40Ut/LricuvXkt3EGpQfgV61uhWfj0uU6rlV893NKbUIO0A9C+xauS4lV+/qvx6cGHgVn79yj3hn92zPnP5Fexc2XK/2hM7avlVFYwurvya9dny76Pqbpt/1HX6/wM=&lt;/diagram&gt;&lt;diagram id=&quot;Wpuy9MsMTo_caD8yrVaE&quot; name=&quot;Page-4&quot;&gt;7VxZc6M4EP41foyL0+DH8ZHsVGVrU5Wp7My8TCkgY40x8gr5yq9fCUvmEE5wPCGQEDsOaoQE3V8farXTM8fL3Q0Bq/nf2Idhz9D8Xc+c9AxD1x2N/eGU/YHiuuaBEBDkH0haSrhHT1BcKalr5MNY0A4kinFI0SpP9HAUQY/maIAQvM13m+HQzxFWIIAK4d4DoUr9F/l0Lp9L09ITf0EUzMXUri1OLIHsLAjxHPh4myGZ0572pceP829zTDCmJ0/LTsvdGIac2Xk+Xp9/4fEZCYzohWP9/HX7e/FkL3/PHuj1f/H1P8Hu55VxmGADwrVgq2AJ3Us+E7yOfMgHYcOOtnNE4f0KePzsliGL0eZ0GbKWzg7V+xWPsIGEwl2G9Pz9p09xA/ESUrJnbXG55R6GFLh1xAzbDAhc+0CbZ+RvSmAAAbzgOHIlhrI+gqd/hvW6wmnoM4CLJiZ0jgMcgXCaUkepLDiz0z63GK8E8TekdC+0FawpzsuHiYXsvwtZJo0fvNG3ZXOyy56c7EXLW5PNEQMxBYR+4SrMCF4I4hh5knyNwuNcO0S/Z44zM7FWOhFv7DONO0gQEwwkgnYSUzFeEw8+x2JH2CVAAkif6yhgzyVwGUYJDAFFm7yNagjiTEXZRyBaKDDkqoqYnb0FjzC8wzGiCEfs1COmFC/zeJJ9v4Qo4H0ox+EIiJbHJMbFyKBB8AKOcYi5UCMccTDPGFQkqcfVczS9NnjnOVjxW1nuAu65+uBpTWA/GWpFUMwvXWHEm9MNo8Y1mh67YHpcxfSYmmp5pONpCAwsBQZf7x9Ua3SW3ZcSD+GMnoRFLRIami95B8sp8Q7GsFlCshUhTaPNhUKqg/9DM68ibol3lo44y3+3WewflLG/BbFRkf16S/nvlPHfbB//S6PTFvDfbW1w+pqo84IIc1AxwrRrDzCrjJ3OcMcjqhTH7sDpD4dDd8BjnoE5KKBat/vaMH3lb+LANDFgBfTmMHx80roRP3wPxLcBuYMOuc1GrkzIfRJjXTH7UINmOJ1mNFwzLsuxaa/TjLcHqFERoHr9Ucd7JFLVJPYEEb7lYGi3qCTBJRNMSR8lD6XrQ2Pq8pxGvDrsW8zQjuNhRGCMnsBjMgzHRlhIkB3TXS9m0JQEWXnCpDxthiMqsKdbdWVV9HxWRR86yrJGpuWzqxpJawpS1AyoAo4CGmbJzylZ+CCep6ZiTUMUsS5yv0vL24XXw6UcHUzkVAy9xJsMLos4JZgCmmkXE6zocfnLC/Ha50dXydHVlZ+o0BV7osWVwZrQZ3dA2cMqcHteKf8ACDMgMywVZJJWjxeVD7bPN+U8eDaLYat8pPUePvK10ePb+1a7qm+tf130HhZTzUN/IyBiJooRH+7GCnbOysg9v3sk9hLq8G+Dwp7ysGLWzhhozRKXmrdWJISWSWGFGt6sMvuubC60imFmK7Zstyfd35MVFFrRKfJoJeNOLcNxRiPpDEfAWwQJYmQXH87AOqSFMCfZFWQoQlHwLTEwJiOI55igZcDYGKJH9sn8F/vcrDz2KXB6w5zWFuz78SaoCUyuxu1YPlxS8TQogVPD0GSqCfe2JBbe3k9ULS0wmp0lYDwC+8w4yc56fN4o6d0WYiUlx2DaZ0RGZw5um9bZgyc6c2BBK2I1dVtMXdwuIPXmQg2ENNkJe8TebLLx4ddmXcec0jfsEmIZzVGJutqN/dHLZigSy2iOStTVbrwl7zpPLKM5tnrHxav1kqv1wtXsfWKFV/Bw7HXNpK2kFSYT07LGykIyu8TMOc5XLgoV15yxrEWXmrQFcrSyiECpxNnGVp+tLhPj+NXj98MXm4ejfK8I0i0mi18ztozcAq4Btfhe3bE+RKLC7RS9U/RO0U8r+sD5GBnJoaLoX+8fVGX/GMV4pmupQmpDNZ6hKWJqZzmeOVQl0IZ6pCNr2l6QZ7VVAOomWzsr8uwSG9QKAbQ3GVNvYZMpv4z2YmZGCLihmZkz6zdsw/1w9RvGZXtT7SvKq45dvcNuw7Frfyp7/eYJ9+qqYXSq0XDVGFykGk0tyzOqbgnJ7wh+7NIBQ92s6Mryem9almfLUvB2JcGMCtnurizvj5TlHZWyK8truI+87PtIH60sT7rMl31r/Quj96jM0RSL+RnK8iytYu6ucZVUavpaEVFXl1d7XZ5dgqc21OWpuXg1mO6qA7rqgK46oGkLo6TPiX8iJ0PO9N/1mdP/AQ==&lt;/diagram&gt;&lt;diagram id=&quot;CDp1FA2rQhgmzuH0Gw1a&quot; name=&quot;Page-5&quot;&gt;7Vxtc5s4EP41/mgPCDDwsX5J27neTWbSuWs/dRSQbV0w8oD81l9/KxDmRSTBTkIg5yZ10IMQYvfZ1WqXZGBM14fPEd6s/mQ+CQZI8w8DYzZASLfGGvwQyDFFhhYyUmQZUT/FtBy4o7+JvDRDt9QnscRSiDMWcLopgx4LQ+LxEoajiO3L3RYs8EvABi+JAtx5OFDRf6jPVxLVNS0/8YXQ5Ure2rHkiTXOOksgXmGf7QuQMR9onwbiuPxtTCPG+KOns07rw5QEQtplOd6cf+HpGSMS8heONY/vfo71v/74Yv6wyW49+3m3jYbyBjscbKVYv979DYDEY37MxB2xbegTMRaMPtmvKCd3G+yJs3tgGGArvg6gpcMhDugyhOOALGDakx2JOAXNfZIwZ6K/vDWcI4dHH1d/Sh/VJ/5M2Jrw6AhtOaI9ttIxJct125VK3+ecQbbstCrQBWUdseTp8jR4I/lDH6mC19GUoWjqZSpqQ/rIfV74ulMjfEPrlvBNRfgTHD4oCsh4/g3fk+CWxZRTJvh+zzhn67L8620iMxwPVEAiAGIesQcyZQGD1ixkIdxqsqBBkEEDIazJ/AaJziu8EVNZH5bC6Y/w721ERslQm4jG4tINo6I53wEat0gFo0IFR1OpYGgqE6xuEcHqoRVattnEDGuE3zUfOFakPw93L1yq2tCAqzdg/ylwKWrA6ZYC7DoF9MAEFAW4PVWAU6cAo48KqPNBPVCAq8ia+LAtkU0W8RVbshAH8xyd5NoQ4s77fGNizU/AfwnnR7nHwlvOyhoCLUTHH1KbSeOnaIysrDk7FE/OjrLlbaPdiQXkQPmPbEA4LgwBrXwE0cgGSB9WPOHTxACBsG3kkScEp0vfwXG0JPw5J38B0yISYE535ZnWsabJ2PkdbkXAlBPZMZ2R67rOGNZVZ2yMnQqtDXOkuflXeRapkOSIDehbIvHpUdumfLbhb5fzveSufeVux7irRocf2V/HwFD+SSTXxB4ywHFMvQy+oUF5xW/XNJyraXTMNNSM0oxGIlOLtG+0JruRZReSPkoSQtddNHdECiPepOneBT0IMk8iEtPf+D4ZRpA0qGRHTrmOZ9MnSnakPolSnzNhIZcGq5stRb2mW9l5u/pYiXpNRw16M6wjQa+u5r8UdlTosEj+PaYMH8erk6NjWx7QELpkdQKt7E0v50s9PUDBXA69ZrsCMatEjRjHvNCuptfo/fqXF7CtL46GydFw6Cc2NIQnehgiaBIfZsDhYZvw7QlDvYCFxRS3qZIsw9rxsDoqmwIq34ctFjHplftUk1HfIxwCCQH8+3aqGMhZe/Kns8OyrNKGCxtXc/hOth14buOOsgpjV5yYmrxSdETXSdFRXcM2JKIweeF2ZnAvuonJbQ7Vlb7yDH5WXdSqjk8sSQWXaSLbnkwyhzfB3sMy4UzWxScLvA14ZS1L8v7AIxouvyfhqQGAfI4ZXS9BjAG9h0/wUfC523jwKZn6GRzTHh9H8W7ZVj3O0UeVipxbQ6hxDZ+6Ric1FadGTA+Eeyup7aTykszdmsA33Gya/reg61QgI2TVgHWYrYK62g1+6HV3qIJ1mK2CutpNtLJZl8E6zLbUGVev1muu1itXw/cjUUPFouDrBrStxKqzmWGaUyU4KYYtJUO9MNBQXEHBTVRNOGlL5mh1Hkip7e1jcwQRS7L3+OqJ+YgAJj0q9woJ37Po4dcCQpM9FhbQiq3rlmLp/Yx+3aulXy39aulPBInWx9jnIk2x9PR1qBeWODv7OhTS+vo6VCac3r8LkG+eelYJzVbB3r8MAFbQUw2oGdx+vg2Qe5e+acBUhP2Ry0uD16sboaZ1o4u51oXCEUIfsHCErPcgfT/Ji67k7Rh5x/8rj93+CwHNbePSstbVNt7KNq4Vki5WSPJfuetZhURlzzmuVmvX1SatAmPf630qo6H7TLdQb+k+34MyLwstW6ZMQ3Zcsm6LRpWMr8kytynL3vyN1vfYtTt9igEbsqwUKr4HVVCnXn4GgeFjYRxZkztrlHy2ldjQtqq/zWKhM+K8M0dHyNTOHj2xmlQIvQg9+2SRJVPr8SLgNF0E3nyn9iqLQNLnkT/QkPE7/1sYxvw/&lt;/diagram&gt;&lt;diagram id=&quot;dgpsJWCUVlDYSqTuMVIo&quot; name=&quot;Page-6&quot;&gt;7VxZc6M4EP41fowLics8xkdmpyqzldrMzs4+TSkg29pg5AL5yq9fCSQbEE6wHR94PMk4qBENdH+tbnV30jJ7k+WXGE3H32iAwxY0gmXL7LcgBI4L+A9BWWUUC0jCKCZBRjI2hGfyhuWVijojAU4kLSMxSkNGpkWiT6MI+6xAQ3FMF8VpQxoGBcIUjbBGePZRqFP/IQEbSyowjM2JPzAZjeWtO7Y8MUFqsiQkYxTQRY5kDlrGfUscF7/NXkwp23paTZosezgUwi7K8WH3C9fvGOOIHcjrnt6PnLfZ3O9/+/Z3vLoPAzi4g9kN5iicSbFKkbCVknNMZ1GABRPOtrsYE4afp8gXZxccWZw2ZpOQjwA/lOxwzPBy6yuA92RcfosvmE4wi1d8LDladsZS4tazO9l4kUNBR84Z5wBgKmQgibzRmnUtifI5UqifI3tTk30XRa+a/IUwCYf9I3rB4RNNCCM04qdeKGN0UhS/mnsfkpGYw6jQD5Ijn2sAx5yQsJi+4h4NKR/1IxrxW3WHJAwVqSWE1R08QDF5jKbiUSbLkVhI2uhtFuN2ymoak0RcOqVEDAdzTk1OiAS7hARHR4Jp6ECwLwsHloaDr88/wGF2qFQe4iHbiouTqMgzPrRWy62wVuhdlpZsTUuDaH6glk6hAM/82EjWPjOvgM5lyd+pkn8DvFVZ/sBoqALcKgWYDVQAqAoYGqCAjiZrHPCIWA5pzMZ0RCMUDjbU7kYbQtybOY9UeICU+B9mbCXDezRjtKghroV49VNqMx38KwZtWw37y/zJ/kqO/Fk8X6MALwn7qRjy4xwLPtpwEAPFIHtZ8YbvA4MLhM5iH78jOCDXDobiEWYfrfF7IC3GIWJkXnzSKtTU4b25w5MIqzZA7jhW2/O8jsO9ascx1TKyhrUB24a3+So+RSYkybEGfAsgXr/qqSHvnQPyjYSuc4PuZUFXpUl+k+U64Qhl9yKtIzaaIUoS4ivyAwmLDv+0puHeTOPCTEPfNu1iGsZ+pnEGhMKaCAVHDzzOEK6qt89tGPokFplgaDySikSXSjSlc7R8FAAeHHREaiOZZunkIVkKPHRjnJA39JKyEdgIS4myddrrw0yaliirzptUp89oxCT2gHWq5IpyMuu9ZcfStjZWR9/ZKNqlQEVPhWroKMFhmP7bpowAJePNWjFjIYn4FFWHMIoLw/54qYYHVzCTrCd0ngNmGagxZYjlxuVMK3mZ/PJDOgvE0V16dHcXpDZ0x9/o9Q7yIQ74EzD+snXw9o6h7oHCHMigpYNM0U7jR9VysyoO1X3ocJjgRjlJ6xxOct/48QzO1a7rXI++NTrHiqmno7/HKOJLFCf+eOpp2NkpLfd+GUnWFE7h4Jxyrc+tmbqDjnFZ+tLT15qKyCSteOsBzhTHhD+88El9fi8yTfDThlRV9tlU+lRp2yh7RRGv5PypBV2321XesIv811EKGTUlwEM0C1kp0EnrgxxGJBp9T1cYkxPke/TJZMTFGJIX/skdGP+cT33+KYH6hXutBVq1k/noRGhyPbddTsZXAMqpwNOlwUlPxuvh9Ctm/lhqO63Qps9ud/k3v1kv+2/zqT1BaUO7glhFc3Ui0KfxH6DqDmViFc3ViUCfJkbqqYvEKppr609cvhpUXA1KV/PvLSFlyaL41wPXtraR6fdNy+ppkWs+pi0Y6p5RqLYU5JaJsgmnY4kco2oF0noAFonV5uFs6qS/+uJ5RHSbHRVnRZgtaPz6a8jj1gUSFnASWweqvanpW6OOZulPT38+dg9z8Cfx3a5R1oC+1qpWjIIGLmytPSgOb1oeVwxywcW5gnu3bnC/7971ooN7T7N58vxD9/DX0REEYEVDRCNagqCh6amZPUEA1t1XXVhLhJJN87uCzKZqQM/yN7QtyGpoXxbUhX3NAconRhmwUzPKyBb6ppaQLXB9JWR4WHb8CjqD6oN334XyBt5jgdf+rVbs028f69vG0bePN9vY0Tacg2zj6suesG5mJLOBK8uMQL3u8TuUPQGsSJ02ou4J9fS1pqNb3fP0dU+zAlANqHtCPTPa1GqI6TWyGqJ+nzangb8wF12CObGpugBK8A3ThZ79bL4uLAc0Uhd6HvTW7fy5UNG6nU2vkSV989btbLTO1u1s7rvlv3U7H9MmrrHb+cwZYuWSPk4VXPZvyNm2UwoRwFWkusxGpYGrwewerZuokHb+RKuo3Vq0t6M4ilVwgaFVjo9s6N2Jy1YLM7UNETR2MKRduVuyqXEX7qn5ZUI4j22nc7b8+Td1t80f2jMH/wM=&lt;/diagram&gt;&lt;diagram id=&quot;rSx92CfnK8RiYWjQZP4W&quot; name=&quot;Page-7&quot;&gt;7VzbcuI4EP0aHqFs+f44XJKdquxWajK1M/s0JWwB2hiLssUtX78tWwJsmcSTZIg9SyBgHcu69elWq6WkZ42Wu9sUrxZ/sojEPWREu5417iFkup4JXwLZF0jftoICmac0KjDjCDzQJyIfVeiaRiSTWAFxxmJOV2UwZElCQl7CcJqybTnbjMVRCVjhOdGAhxDHOvqNRnwhUdMwjjf+IHS+kFX7jryxxCqzBLIFjtj2BLImPeNTT1yX39YoZYyfva0yLXcjEovRLo/jzc8/eOhjShL+xrKsb5MMPd0w/mW/306/Lm9/RJ/7soINjtdyWIc4eZTDwvdqrFO2TiIiCoKih9sF5eRhhUNxdwv0AmzBlzGkTLjEMZ0ncB2TGbR5uCEppyC2TxLmTOSX9cI9sjvbV/M5YVS7e0vYkvB0D2lZouO7RZmS4qZv2QWwPRIGKb4sTriCAgliSdL5ofBGgw955Pi/j5iQJhESgTLIJEv5gs1ZguPJER0eZSaEcsxzx4QAcvBfwvleajZec1aWI4gh3X+XMs8T/4jEwFHJ8e705ngvU+E63Ry4kvGUPZIRi1kKSERmeB3zHMcp/yTMAMBhjLOMhgq+obFqQ9Fv0dnnSQJjw9ZpSJ4ZQ0vaKJzOCX9OJaxXsi4lMeZ0U25pSwhkaXr+Nh2/hPraVe1Fgaa9pu/o2msplW7J4NvNjKwylHd4SuJ7llFOmTCYU8Y5W5bHv96oKssbgghIqmlfwhJhGGagXgrqicEaTm6QyLzAK9GU5W4uXIYBflqnZJAXtUppJh5dMSqSkw2g2QWp4GiGXKeCVWPHnXYRwdGI8PnhbwBMjQvdnHB91EBlkd2BCdfVJDVJNm8U0yUkEFgNNMWsc3n8dgnAqxNAByYtTQBBRwXg1wnA6p4AkFHnNnRAAIE21l3x+cmO8u+qQLg+KQJSxxJEQhXQez9H35TUfdHTd1/JtMaOfpOyjzXcC+fqSGTfdQZBEPhuvpC1XL9iVzxrYATHV7kVxSDJEhvQt0TiQ1cvTXkVWros5zvJXe/K3ZZxV/cOr/b6fTnvXznfMs5/SFzyjSHFEvXfk8aNA4y/3HZ/gLdq6hHGMU3Fvg8y7mhNtEtFm/I8WlDKNAM08UVsI1sVm0czuhNSG6Yko094mhcjJBhXomWH2NeL4TQtWlYfOKmPobGES4Ka9qWCYGqKOZgUx9FWNravL2wU1haq6PFQjR0VOszyn3PCiHC2OGg0W/OYJpBF7ToaZevxer7U0wMEzGXRS7Y5IWaVqCnjmJ+kq+FWOl3+CGO2jsRVP7/q96Nch/rQo8c+giSJoAUcOtuEb++7vVEK4ekkU9hlJls18+zLSVUPm80y0qmZVI93fU1xAiQE8O/7kaYgPxV3eX63QIaNL2HCXG1Px24YnEGu0S4jpsfHNBnRZX6EQZ/DViSl0HhhdsZQF11l5P4I1YX2jzs66qyCUTV8Yko6MZk28rzhUBm8IQ4f5zlndL/pdC7L94GARzSZf83dMQsA2Y8xXc5hGGM6hU+wUfC5WYXwKZl6C4Zpi/eDbDO/1H6DVZ0Ra+jk1rCpbWQKXiZT9kh4uJCyzvfh8rY7Q3hDZaPi14GsI4EMkFMD1mGeDpp6Nvgy62qognWYp4Omnk2kVKvLYB3mOXqLq0+bNU+blafhfcZnqOgTvG5A2pqnOh5btj3SXJNTp6Wkpq90MzRDcGIkqgqcpyVzjDr7o+30bjN7AP5KvsT5HIr2CPeluCrnSgjfsvTxxwwcky0WGnARTTe9yoTfUd8XGZqm39//dQdj6Oa2eJrC1Vxc3Xx725x/kenc01Ykuv1Ve/AlqbTL/iJ9u/eMVL4QGNGMdE80yDB1hemAaExXG+sWh1XfMzT1a6OyL0apkFyRvBj3Kkxaa8OyXvVMSuC55apeF3s9W6GP3EFQ2YNGtjNQE5aqtpBA50K+zlUfT/URXWybRLkOL2qu86v18SNmaD0+Uhyd0xdKv8fROWRaljZfd+LoHKo9OdTBs3PItHURdOHkENLDCd08PAeE76YE1Fnk7p+es2rMUCckcD2OUceMJn8nYzddIXT5PAYsDLzf7jyGpdv4/9n5uebkDa7kbRl59enxarHfl/SFW3IlfYtI3+AszHUb+cLbyEA/3en9kG3kPM+Z/zmgqHv89w7W5D8=&lt;/diagram&gt;&lt;diagram name=&quot;Page-4 - IBM Stensil&quot; id=&quot;q_a3TjZ7B7X3Rs8Ni-UC&quot;&gt;7V1bd5s4EP41eXQO98tjbTdtz6Z7spttuvvUQ4xss8HIB+TY3l+/EiAbENiACRdbTdpag4xAfDPzaTQSd/JktfviW+vld2gD904S7N2dPL2TJFHUBfwfkewjiWHIkWDhO3YkEo6CZ+c/EH+TSjeODYJYFokQhC5y1mnhDHoemKGUzPJ9uE1Xm0PXTgnW1gIwgueZ5bLSn46NlvS+BOF44CtwFsu4aUOND6wsWjkWBEvLhtuESP58J3y6I5/Tv/LEhxAVHqaVVrsJcEln035c/zt+efnT039/2QDd/PoV/jC1UdT4Q/WzmcL4h+7+9suWDQmun8AfU/fnSJSie3m33E3cQT885CAX2Fj6aO2BT7vFBx5q77pk5rriTkd7+iQxQpDlePgK5al4J49n0HWtdeC8hhVwW2OwW1ueHRd8MNv4gfMO/gRBhEoiXaKVG39/u3QQeF5bM3Jsi9GPZQHy4RuYQBf6YaOyKJrSZwMfmTuuS+Ue9MChMkVVDLR34COwy2Dv2Jcnnsrpnjz25xcAVwD5e1yO21HUuKVYR0U9Km6PgNckI5ItE1jXdDVWtFjJFodTl3q2uE78eBtCgcKg4Nv4OxZMXLixGUBghVyTj35oN/KekBWsI5syd3YY4QQUGAvWETGu9QrcJxg4yIEeOVXUOWPyFB1sRB4zx1eObbvhmV1nQQQumCfrf4rFh3ppQMWXhQGBYhAGGH+Ot3gMTzNVyW1gmMdmFPeHPL4AVnJNWCVwo+TAhsp84FoIK1jaZvcESup5g5IETFLVKa5WuwXxiffO6+rXjCCQfBqFn4qerG0FS0AtENwgF9urycGzZQxQFnwz/DiJdStE3ytECK5y4IbgOg2rFXxPoDyLeh8iCyXKF0BMuRxiksJCjMpKQ6zMJRwv5Ak6+LYO9pN6xX26SNuB83kAUCkgp+B8uN3Wwa+dB/8J45nUBW5BL7agwzSg9HJ6x8gePilTVcv39wfzK8aFJwthk+pF9EyQGdImdYCNuB1ZSxkdTWA4m6qLOZbRkPqFE3ZE8e35ReRkrSKcooq3SdakEqO/jIM6WIFisrbw4WY9GlmzGdyQrueM7aivnLH1i7FJek+9bSvxj9q2j7ajmik4SKwvFQUpD7NKv+ygwaDgL9/ysDW5kzTyMMgTfHmacOdaFWD6DTtXs7JzrRIJGY3e1zPuXJMKzJ1rv5yrLJzXAB4OacuMDtOKyiXiyZygFU9QCSmTYpbjZ0bPMMCGVT9771jAox1VARWp020SMrnEWI8TsmYIWaSynJD1jJCx41xOyDozo8O0oorACVlzGUPmMBmZwk5SRoyskj3hjOygT7fJyBR2DpMzsg9iZEoD85yckTWuASVmYDkja8uMDtSKstm7nJGdf/BFOdymMkxKxgZKI0omc0pW1ZY0kFw7WEpWIoWVU7KGKFkDUQROyRrXgBJhYk7J2jKjw7SiUl8p2dUkcaspoyNrKkPa8rO4zZ5lnrGs7dvzC4+iVR4F3DBlk6pTNp7FXRdnnLIVY7q7ec2+rplqJwJS1/bRdugSKOpMBcaXDiKLW2ZnE3gWdyOz3Te8REquvkSKx0Pq4kzizrWHzrXEWJbHQ9oyo8O0okqJxDNO0IqnqDImxShH0Po2Q8UuiOJp3DVDqw2sdxoqI6NLGjgja2GGyuSMrBDTnTEytUS4gzOytszoQK1oiaAxZ2Slk4YEdufHIVAylZ3r5nnc9SClNrDiabCUrMTwjlOyZiiZ2sBacE7JGteAEpt9cErWlhkdphWl03CcklV68EVBMnOYlEwrWlrH87irQipSqNukZJrEKVlblEzjS+uKMd0ZJdP40roemdHeW9Hcl63kdFGzL2XJPRvr6YG9AM9xEfpoCRfQs9zPRym2ZhvPPmRvH+s8QmIVQ+G/AKF9DAlrg2DaDuMb9Pd/UxJJCv+Qwr1Ki9Nd8uB0H5cwwXw/GPsAYUh+Im8PIpbctYLAmVHxg+Me2to56O/E50RLuHRsiBT2icIT8B0Mh5D9Hk026ZxCRJ96rAHc+DNwql48qsOXvwAnT1g3nb3P4De7gGEKTrVwUoBjTZHOIDkstQ4xnYVYs1vOtMMeDE2/N03T0CRJNTRZM1JkQhLVe8E8/qQvIuqk+ISl+UXhpZhyunExe9NRX9dtD5s3a58425qcJ+gnMcqHnDBIxW5HE7mCVVcw5qbrKVjnesHmIXXIuzRNr8K86mhUWbbWa79Ye5XpzautLF6H2rLD+ipqK9RT25K68+Fq8uEDj4sgpynX6SnY0NLUCWNIkvDoeG8MID8qzlQ+WEoDTcw30tHT3DhTrVBSMazrz/GotONPzPGcCtj3ZGCd87pVBjEZiMzDP9cVcC81zWCHejXCd/Q2knAR2PgKEHlrcm0MNvBuQR6tb1wn1C68eN2gZzve/3zYsd9DVv2c969HcDuHaokNgpyVtcidgF8nxlG4LWcdgMTQKolNxmNje2mHgBOyJp846ISzUCRdH4+pqR9bs7dFqCm0ig3m1sZFGc8uHaeR/grVh2z4Et/H1FktcDe6ziv+F1tn/C+Z/5Ue4gXWX7BJ3lr7++B90SU/MASiummGIDIMgebZpN7ILvSLIRgXWcMBTAF9+MCo7NSNVHeJy4fY0OLgcvmzFNpjJvoQ76JUJa5Q+uRqvG64WtAC14+6YBCOoEzS5xtAs2WsG/HTxAfUMf7FjU2ivyquOiGSe7LBDCPMk+msUGSr4f/EvBaywjyZzgpFthop0atOC/NkuspecfbbYs63xcy38W/BSCfjC/HPA37azJh7OpUVZcIMqJJDrZSLrTk4Ypx4wtxmnW9YjpEj5HGH7IDJ2gbKPR5lhbbw24xcDxl0RZ/StTyAttB/+zXHw6mtRTSgOy8t6so1jOIlgWs/136u/RW1X9OvIoYnXRav6Dw7ZiTcCwfOH884qsoZot/JTCDdgen8TGDd1bx9mAlUJaO7mUCF7vEz7GkZuhHmwHSyHQXielFdL9Qr0Qu922gS62nEm85tKe3Ramfe37zmatJ1aO5lceBh57b0KzJ7NrflWpwFG9TkuS2lYd1cbotK07SHNS6mm0fz3JYucltqm0ye2/KROnFZYvlt5rb0fNSazW1hvP8wc1vKbHfOc1v6kduiCuybKgeQ21JqP3E+b8bnzfi82al5s/6PD3JDWsJ55b+KPa4+xAVkYlxsaqNo5Nh/Se3Xe3ryNrjCar72nQBg+e+R0lWJM/DdrqhmXTb0G+pmV1LlmEOJva5i4z8agSM6rypGUR9qfL+rYlh3956eErSab3fVjh3tixkN6/gQopwaFK/E7H2HNiBn+R8=&lt;/diagram&gt;&lt;/mxfile&gt;"><defs/><rect fill="#ffffff" width="100%" height="100%" x="0" y="0" style="fill: light-dark(rgb(255, 255, 255), rgb(18, 18, 18));"/><g><g><rect x="0" y="0" width="185" height="290" fill="#ffffff" stroke="#000000" pointer-events="all" style="fill: light-dark(#ffffff, var(--ge-dark-color, #121212)); stroke: light-dark(rgb(0, 0, 0), rgb(255, 255, 255));"/></g><g><g transform="translate(-0.5 -0.5)"><switch><foreignObject style="overflow: visible; text-align: left;" pointer-events="none" width="100%" height="100%" requiredFeatures="http://www.w3.org/TR/SVG11/feature#Extensibility"><div xmlns="http://www.w3.org/1999/xhtml" style="display: flex; align-items: unsafe flex-start; justify-content: unsafe flex-start; width: 183px; height: 1px; padding-top: 7px; margin-left: 2px;"><div style="box-sizing: border-box; font-size: 0; text-align: left; color: #000000; "><div style="display: inline-block; font-size: 12px; font-family: &quot;Helvetica&quot;; color: light-dark(#000000, #ffffff); line-height: 1.2; pointer-events: all; white-space: normal; word-wrap: normal; ">Bank</div></div></div></foreignObject><text x="2" y="19" fill="light-dark(#000000, #ffffff)" font-family="&quot;Helvetica&quot;" font-size="12px">Bank</text></switch></g></g><g><path d="M 174 138 L 174 137.5 Q 174 137 184 137 L 371 137 Q 381 137 381 143.5 L 381 146.75 Q 381 150 391 150 L 443.63 150" fill="none" stroke="#000000" stroke-miterlimit="10" pointer-events="stroke" style="stroke: light-dark(rgb(0, 0, 0), rgb(255, 255, 255));"/><path d="M 448.88 150 L 441.88 153.5 L 443.63 150 L 441.88 146.5 Z" fill="#000000" stroke="#000000" stroke-miterlimit="10" pointer-events="all" style="fill: light-dark(rgb(0, 0, 0), rgb(255, 255, 255)); stroke: light-dark(rgb(0, 0, 0), rgb(255, 255, 255));"/></g><g><rect x="6" y="24" width="30" height="50" fill="none" stroke="none" pointer-events="all"/><path d="M 6 74 L 6 24 L 21.39 24 L 21.39 74 Z M 23.36 40.35 L 25.2 40.35 L 25.2 35.22 L 27.41 35.22 L 27.41 30.24 L 28.96 30.24 L 28.96 25.56 L 30.31 25.56 L 30.31 30.24 L 31.9 30.24 L 31.9 35.22 L 34.22 35.22 L 34.22 40.35 L 35.95 40.35 L 36 74 L 23.36 74 Z M 12.51 27.92 L 8.36 27.92 L 8.36 32.25 L 12.51 32.25 Z M 14.49 32.25 L 18.68 32.25 L 18.68 27.92 L 14.49 27.92 Z M 12.51 34.36 L 8.36 34.36 L 8.36 38.79 L 12.51 38.79 Z M 14.49 38.79 L 18.68 38.79 L 18.68 34.36 L 14.49 34.36 Z M 12.51 40.9 L 8.36 40.9 L 8.36 45.08 L 12.51 45.08 Z M 14.49 45.08 L 18.68 45.08 L 18.68 40.9 L 14.49 40.9 Z M 12.51 47.34 L 8.36 47.34 L 8.36 51.67 L 12.51 51.67 Z M 14.49 51.67 L 18.68 51.67 L 18.68 47.34 L 14.49 47.34 Z M 12.51 53.83 L 8.36 53.83 L 8.36 58.1 L 12.51 58.1 Z M 14.49 58.1 L 18.68 58.1 L 18.68 53.83 L 14.49 53.83 Z M 12.51 60.27 L 8.36 60.27 L 8.36 64.54 L 12.51 64.54 Z M 14.49 64.54 L 18.68 64.54 L 18.68 60.27 L 14.49 60.27 Z M 29.59 47.44 L 29.59 43.06 L 25.39 43.06 L 25.39 47.44 Z M 30.21 49.6 L 30.21 53.98 L 34.41 53.98 L 34.41 49.6 Z M 29.59 56.29 L 25.39 56.29 L 25.39 60.62 L 29.59 60.62 Z" fill="#00bef2" stroke="none" pointer-events="all" style="fill: light-dark(rgb(0, 190, 242), rgb(0, 137, 182));"/></g><g><rect x="545" y="0" width="340" height="290" fill="#ffffff" stroke="#000000" pointer-events="all" style="fill: light-dark(#ffffff, var(--ge-dark-color, #121212)); stroke: light-dark(rgb(0, 0, 0), rgb(255, 255, 255));"/></g><g><g transform="translate(-0.5 -0.5)"><switch><foreignObject style="overflow: visible; text-align: left;" pointer-events="none" width="100%" height="100%" requiredFeatures="http://www.w3.org/TR/SVG11/feature#Extensibility"><div xmlns="http://www.w3.org/1999/xhtml" style="display: flex; align-items: unsafe flex-start; justify-content: unsafe flex-start; width: 338px; height: 1px; padding-top: 7px; margin-left: 547px;"><div style="box-sizing: border-box; font-size: 0; text-align: left; color: #000000; "><div style="display: inline-block; font-size: 12px; font-family: &quot;Helvetica&quot;; color: light-dark(#000000, #ffffff); line-height: 1.2; pointer-events: all; white-space: normal; word-wrap: normal; ">ISV 1</div></div></div></foreignObject><text x="547" y="19" fill="light-dark(#000000, #ffffff)" font-family="&quot;Helvetica&quot;" font-size="12px">ISV 1</text></switch></g></g><g><rect x="755" y="10" width="100" height="80" fill="#ffffff" stroke="#000000" pointer-events="all" style="fill: light-dark(#ffffff, var(--ge-dark-color, #121212)); stroke: light-dark(rgb(0, 0, 0), rgb(255, 255, 255));"/></g><g><g transform="translate(-0.5 -0.5)"><switch><foreignObject style="overflow: visible; text-align: left;" pointer-events="none" width="100%" height="100%" requiredFeatures="http://www.w3.org/TR/SVG11/feature#Extensibility"><div xmlns="http://www.w3.org/1999/xhtml" style="display: flex; align-items: unsafe center; justify-content: unsafe center; width: 98px; height: 1px; padding-top: 50px; margin-left: 756px;"><div style="box-sizing: border-box; font-size: 0; text-align: center; color: #000000; "><div style="display: inline-block; font-size: 12px; font-family: &quot;Helvetica&quot;; color: light-dark(#000000, #ffffff); line-height: 1.2; pointer-events: all; white-space: normal; word-wrap: normal; ">Env1</div></div></div></foreignObject><text x="805" y="54" fill="light-dark(#000000, #ffffff)" font-family="&quot;Helvetica&quot;" font-size="12px" text-anchor="middle">Env1</text></switch></g></g><g><rect x="755" y="110" width="100" height="80" fill="#ffffff" stroke="#000000" pointer-events="all" style="fill: light-dark(#ffffff, var(--ge-dark-color, #121212)); stroke: light-dark(rgb(0, 0, 0), rgb(255, 255, 255));"/></g><g><g transform="translate(-0.5 -0.5)"><switch><foreignObject style="overflow: visible; text-align: left;" pointer-events="none" width="100%" height="100%" requiredFeatures="http://www.w3.org/TR/SVG11/feature#Extensibility"><div xmlns="http://www.w3.org/1999/xhtml" style="display: flex; align-items: unsafe center; justify-content: unsafe center; width: 98px; height: 1px; padding-top: 150px; margin-left: 756px;"><div style="box-sizing: border-box; font-size: 0; text-align: center; color: #000000; "><div style="display: inline-block; font-size: 12px; font-family: &quot;Helvetica&quot;; color: light-dark(#000000, #ffffff); line-height: 1.2; pointer-events: all; white-space: normal; word-wrap: normal; ">Env2</div></div></div></foreignObject><text x="805" y="154" fill="light-dark(#000000, #ffffff)" font-family="&quot;Helvetica&quot;" font-size="12px" text-anchor="middle">Env2</text></switch></g></g><g><rect x="755" y="200" width="100" height="80" fill="#ffffff" stroke="#000000" pointer-events="all" style="fill: light-dark(#ffffff, var(--ge-dark-color, #121212)); stroke: light-dark(rgb(0, 0, 0), rgb(255, 255, 255));"/></g><g><g transform="translate(-0.5 -0.5)"><switch><foreignObject style="overflow: visible; text-align: left;" pointer-events="none" width="100%" height="100%" requiredFeatures="http://www.w3.org/TR/SVG11/feature#Extensibility"><div xmlns="http://www.w3.org/1999/xhtml" style="display: flex; align-items: unsafe center; justify-content: unsafe center; width: 98px; height: 1px; padding-top: 240px; margin-left: 756px;"><div style="box-sizing: border-box; font-size: 0; text-align: center; color: #000000; "><div style="display: inline-block; font-size: 12px; font-family: &quot;Helvetica&quot;; color: light-dark(#000000, #ffffff); line-height: 1.2; pointer-events: all; white-space: normal; word-wrap: normal; ">Env3</div></div></div></foreignObject><text x="805" y="244" fill="light-dark(#000000, #ffffff)" font-family="&quot;Helvetica&quot;" font-size="12px" text-anchor="middle">Env3</text></switch></g></g><g><path d="M 500 50 L 500 47.5 Q 500 45 490 45 L 464 45 Q 454 45 454 47.5 L 454 48.75 Q 454 50 464 50 L 748.63 50" fill="none" stroke="#000000" stroke-miterlimit="10" pointer-events="stroke" style="stroke: light-dark(rgb(0, 0, 0), rgb(255, 255, 255));"/><path d="M 753.88 50 L 746.88 53.5 L 748.63 50 L 746.88 46.5 Z" fill="#000000" stroke="#000000" stroke-miterlimit="10" pointer-events="all" style="fill: light-dark(rgb(0, 0, 0), rgb(255, 255, 255)); stroke: light-dark(rgb(0, 0, 0), rgb(255, 255, 255));"/></g><g><path d="M 498 150 L 748.63 150" fill="none" stroke="#000000" stroke-miterlimit="10" pointer-events="stroke" style="stroke: light-dark(rgb(0, 0, 0), rgb(255, 255, 255));"/><path d="M 753.88 150 L 746.88 153.5 L 748.63 150 L 746.88 146.5 Z" fill="#000000" stroke="#000000" stroke-miterlimit="10" pointer-events="all" style="fill: light-dark(rgb(0, 0, 0), rgb(255, 255, 255)); stroke: light-dark(rgb(0, 0, 0), rgb(255, 255, 255));"/></g><g><path d="M 498 240 L 498 237 Q 498 234 488 234 L 464 234 Q 454 234 454 237 L 454 238.5 Q 454 240 464 240 L 748.63 240" fill="none" stroke="#000000" stroke-miterlimit="10" pointer-events="stroke" style="stroke: light-dark(rgb(0, 0, 0), rgb(255, 255, 255));"/><path d="M 753.88 240 L 746.88 243.5 L 748.63 240 L 746.88 236.5 Z" fill="#000000" stroke="#000000" stroke-miterlimit="10" pointer-events="all" style="fill: light-dark(rgb(0, 0, 0), rgb(255, 255, 255)); stroke: light-dark(rgb(0, 0, 0), rgb(255, 255, 255));"/></g><g><path d="M 174 130 L 369 130 Q 379 130 379 120 L 379 60 Q 379 50 389 50 L 445.63 50" fill="none" stroke="#000000" stroke-miterlimit="10" pointer-events="stroke" style="stroke: light-dark(rgb(0, 0, 0), rgb(255, 255, 255));"/><path d="M 450.88 50 L 443.88 53.5 L 445.63 50 L 443.88 46.5 Z" fill="#000000" stroke="#000000" stroke-miterlimit="10" pointer-events="all" style="fill: light-dark(rgb(0, 0, 0), rgb(255, 255, 255)); stroke: light-dark(rgb(0, 0, 0), rgb(255, 255, 255));"/></g><g><path d="M 174 146 L 339 146 Q 349 146 349 156 L 349 230 Q 349 240 359 240 L 443.63 240" fill="none" stroke="#000000" stroke-miterlimit="10" pointer-events="stroke" style="stroke: light-dark(rgb(0, 0, 0), rgb(255, 255, 255));"/><path d="M 448.88 240 L 441.88 243.5 L 443.63 240 L 441.88 236.5 Z" fill="#000000" stroke="#000000" stroke-miterlimit="10" pointer-events="all" style="fill: light-dark(rgb(0, 0, 0), rgb(255, 255, 255)); stroke: light-dark(rgb(0, 0, 0), rgb(255, 255, 255));"/></g><g><path d="M 174 156 L 328 156 Q 338 156 338 166 L 338 341 Q 338 351 348 351 L 445.63 351" fill="none" stroke="#000000" stroke-miterlimit="10" pointer-events="stroke" style="stroke: light-dark(rgb(0, 0, 0), rgb(255, 255, 255));"/><path d="M 450.88 351 L 443.88 354.5 L 445.63 351 L 443.88 347.5 Z" fill="#000000" stroke="#000000" stroke-miterlimit="10" pointer-events="all" style="fill: light-dark(rgb(0, 0, 0), rgb(255, 255, 255)); stroke: light-dark(rgb(0, 0, 0), rgb(255, 255, 255));"/></g><g><path d="M 174 164 L 316 164 Q 326 164 326 174 L 326 453 Q 326 463 336 463 L 443.63 463" fill="none" stroke="#000000" stroke-miterlimit="10" pointer-events="stroke" style="stroke: light-dark(rgb(0, 0, 0), rgb(255, 255, 255));"/><path d="M 448.88 463 L 441.88 466.5 L 443.63 463 L 441.88 459.5 Z" fill="#000000" stroke="#000000" stroke-miterlimit="10" pointer-events="all" style="fill: light-dark(rgb(0, 0, 0), rgb(255, 255, 255)); stroke: light-dark(rgb(0, 0, 0), rgb(255, 255, 255));"/></g><g><path d="M 174 172 L 302 172 Q 312 172 312 182 L 312 543 Q 312 553 322 553 L 443.63 553" fill="none" stroke="#000000" stroke-miterlimit="10" pointer-events="stroke" style="stroke: light-dark(rgb(0, 0, 0), rgb(255, 255, 255));"/><path d="M 448.88 553 L 441.88 556.5 L 443.63 553 L 441.88 549.5 Z" fill="#000000" stroke="#000000" stroke-miterlimit="10" pointer-events="all" style="fill: light-dark(rgb(0, 0, 0), rgb(255, 255, 255)); stroke: light-dark(rgb(0, 0, 0), rgb(255, 255, 255));"/></g><g><path d="M 126 126 L 174 126 L 174 174 L 126 174 Z" fill="#dd344c" stroke="none" pointer-events="all" style="fill: light-dark(rgb(221, 52, 76), rgb(255, 127, 147));"/><path d="M 167.54 162.45 L 161.47 162.45 L 159.45 162.45 L 159.45 158.41 L 165.52 158.41 L 167.54 158.41 Z M 160.79 167.85 L 152.7 167.85 L 152.7 163.8 L 158.77 163.8 L 160.79 163.8 Z M 146.35 166.49 C 143.54 166.49 140.96 165.07 139.44 162.7 C 138.24 160.8 138.22 158.35 139.39 156.31 L 139.43 156.24 C 140.84 154.1 140.33 151.12 139.88 149.48 C 141.18 150.15 142.35 151.84 142.77 152.59 C 142.9 152.82 143.15 152.95 143.41 152.93 C 143.67 152.91 143.9 152.74 143.99 152.49 C 145.28 148.94 144.42 146.32 143.47 144.74 C 144.31 145.04 145.34 145.48 146.37 146.12 C 149.48 148.08 151.06 150.95 151.06 154.65 C 151.06 154.83 151.14 155.01 151.27 155.13 C 151.4 155.26 151.58 155.33 151.76 155.32 C 152.57 155.29 154.02 154.67 154.7 152.71 C 154.71 152.8 154.72 152.9 154.72 153.01 L 154.72 157.06 L 148.65 157.06 C 148.28 157.06 147.98 157.36 147.98 157.73 L 147.98 163.13 C 147.98 163.5 148.28 163.8 148.65 163.8 L 151.35 163.8 L 151.35 164.85 C 150.18 165.89 148.38 166.49 146.35 166.49 Z M 135.27 154.52 C 133.99 153.65 132.46 152.01 132.46 149.11 C 132.46 145.09 135.25 143.77 136.92 143.34 C 137.23 143.26 137.45 142.97 137.43 142.65 L 137.36 141.54 C 137.36 138.34 139.56 134.9 142.38 133.7 C 147.25 131.63 150.7 134.35 151.96 135.62 C 152.98 136.65 153.78 137.96 154.33 139.53 C 154.42 139.77 154.62 139.94 154.87 139.97 C 155.12 140.01 155.37 139.91 155.51 139.71 C 156.35 138.57 157.79 138.1 159.09 138.53 C 160.55 139.01 161.4 140.44 161.41 142.45 L 161.4 142.48 C 161.35 142.84 161.6 143.17 161.96 143.24 C 163.23 143.46 167.37 144.53 167.37 149.16 C 167.37 150.65 166.97 151.88 166.19 152.84 L 166.19 152.33 C 166.19 151.96 165.89 151.66 165.52 151.66 L 155.73 151.66 C 155.31 150.9 154.66 150.58 154.62 150.56 C 154.42 150.47 154.19 150.48 154 150.59 C 153.81 150.7 153.69 150.89 153.67 151.11 C 153.5 152.69 152.88 153.4 152.38 153.72 C 152.06 149.06 149.34 146.39 147.05 144.95 C 144.44 143.32 141.85 142.91 141.74 142.89 C 141.44 142.85 141.15 143.01 141.03 143.29 C 140.9 143.57 140.98 143.9 141.22 144.09 C 141.35 144.19 144.02 146.43 143.11 150.68 C 142.21 149.48 140.66 147.86 138.86 147.86 C 138.64 147.86 138.43 147.97 138.31 148.15 C 138.18 148.34 138.15 148.58 138.24 148.78 C 138.25 148.82 139.73 152.6 138.53 155.08 L 138.53 155.03 L 136.94 155.03 C 136.34 155.03 135.76 154.86 135.27 154.52 Z M 158.77 157.06 L 156.07 157.06 L 156.07 153.01 L 164.84 153.01 L 164.84 157.06 Z M 158.1 162.45 L 152.02 162.45 L 149.33 162.45 L 149.33 158.41 L 155.4 158.41 L 158.1 158.41 Z M 168.22 157.06 L 166.19 157.06 L 166.19 154.71 C 167.84 153.42 168.72 151.5 168.72 149.16 C 168.72 144.04 164.67 142.48 162.74 142.02 C 162.61 139.64 161.42 137.88 159.51 137.25 C 158.01 136.76 156.4 137.09 155.21 138.08 C 154.62 136.75 153.85 135.61 152.92 134.67 C 149.89 131.63 145.76 130.8 141.85 132.46 C 138.52 133.87 136.01 137.78 136.01 141.58 L 136.05 142.19 C 134.23 142.79 131.11 144.49 131.11 149.11 C 131.11 152.78 133.24 154.78 134.51 155.64 C 135.23 156.12 136.07 156.38 136.94 156.38 L 137.86 156.38 C 136.83 158.7 136.97 161.33 138.31 163.42 C 140.07 166.19 143.07 167.84 146.35 167.84 C 148.25 167.84 150 167.37 151.35 166.53 L 151.35 168.53 C 151.35 168.9 151.65 169.2 152.02 169.2 L 161.47 169.2 C 161.84 169.2 162.14 168.9 162.14 168.53 L 162.14 163.8 L 168.22 163.8 C 168.59 163.8 168.89 163.5 168.89 163.13 L 168.89 157.73 C 168.89 157.36 168.59 157.06 168.22 157.06 Z" fill="#ffffff" stroke="none" pointer-events="all" style="fill: light-dark(rgb(255, 255, 255), rgb(18, 18, 18));"/></g><g><rect x="452" y="26" width="48" height="48" fill="#1192e8" stroke="none" pointer-events="all" style="fill: light-dark(rgb(17, 146, 232), rgb(38, 149, 223));"/></g><g><g fill="#000000" font-family="&quot;Helvetica&quot;" text-anchor="middle" font-size="14px" style="fill: light-dark(rgb(0, 0, 0), rgb(255, 255, 255));"><text x="475.5" y="93.5">Direct Link</text></g></g><g><rect x="464" y="38" width="24" height="24" fill="none" stroke="none" pointer-events="all"/><rect x="464" y="38" width="0" height="0" fill="none" stroke="none" pointer-events="all"/><path d="M 488 46.25 L 485.75 46.25 L 485.75 41.75 C 485.75 40.92 485.07 40.25 484.25 40.25 L 473.75 40.25 C 472.93 40.25 472.25 40.92 472.25 41.75 L 472.25 44.75 L 473.75 44.75 L 473.75 41.75 L 484.25 41.75 L 484.25 52.25 L 473.75 52.25 L 473.75 49.25 L 472.25 49.25 L 472.25 52.25 C 472.25 53.08 472.93 53.75 473.75 53.75 L 484.25 53.75 C 485.07 53.75 485.75 53.08 485.75 52.25 L 485.75 47.75 L 488 47.75 L 488 46.25 Z" fill="#ffffff" stroke="none" pointer-events="all" style="fill: light-dark(rgb(255, 255, 255), rgb(18, 18, 18));"/><path d="M 479.75 50.75 L 479.75 47.75 C 479.75 46.92 479.07 46.25 478.25 46.25 L 467.75 46.25 C 466.93 46.25 466.25 46.92 466.25 47.75 L 466.25 52.25 L 464 52.25 L 464 53.75 L 466.25 53.75 L 466.25 58.25 C 466.25 59.08 466.93 59.75 467.75 59.75 L 478.25 59.75 C 479.07 59.75 479.75 59.08 479.75 58.25 L 479.75 55.25 L 478.25 55.25 L 478.25 58.25 L 467.75 58.25 L 467.75 47.75 L 478.25 47.75 L 478.25 50.75 L 479.75 50.75 Z" fill="#ffffff" stroke="none" pointer-events="all" style="fill: light-dark(rgb(255, 255, 255), rgb(18, 18, 18));"/></g><g><rect x="450" y="216" width="48" height="48" fill="#1192e8" stroke="none" pointer-events="all" style="fill: light-dark(rgb(17, 146, 232), rgb(38, 149, 223));"/></g><g><g fill="#000000" font-family="&quot;Helvetica&quot;" text-anchor="middle" font-size="14px" style="fill: light-dark(rgb(0, 0, 0), rgb(255, 255, 255));"><text x="473.5" y="283.5">Direct Link</text></g></g><g><rect x="462" y="228" width="24" height="24" fill="none" stroke="none" pointer-events="all"/><rect x="462" y="228" width="0" height="0" fill="none" stroke="none" pointer-events="all"/><path d="M 486 236.25 L 483.75 236.25 L 483.75 231.75 C 483.75 230.92 483.07 230.25 482.25 230.25 L 471.75 230.25 C 470.93 230.25 470.25 230.92 470.25 231.75 L 470.25 234.75 L 471.75 234.75 L 471.75 231.75 L 482.25 231.75 L 482.25 242.25 L 471.75 242.25 L 471.75 239.25 L 470.25 239.25 L 470.25 242.25 C 470.25 243.08 470.93 243.75 471.75 243.75 L 482.25 243.75 C 483.07 243.75 483.75 243.08 483.75 242.25 L 483.75 237.75 L 486 237.75 L 486 236.25 Z" fill="#ffffff" stroke="none" pointer-events="all" style="fill: light-dark(rgb(255, 255, 255), rgb(18, 18, 18));"/><path d="M 477.75 240.75 L 477.75 237.75 C 477.75 236.92 477.07 236.25 476.25 236.25 L 465.75 236.25 C 464.93 236.25 464.25 236.92 464.25 237.75 L 464.25 242.25 L 462 242.25 L 462 243.75 L 464.25 243.75 L 464.25 248.25 C 464.25 249.08 464.93 249.75 465.75 249.75 L 476.25 249.75 C 477.07 249.75 477.75 249.08 477.75 248.25 L 477.75 245.25 L 476.25 245.25 L 476.25 248.25 L 465.75 248.25 L 465.75 237.75 L 476.25 237.75 L 476.25 240.75 L 477.75 240.75 Z" fill="#ffffff" stroke="none" pointer-events="all" style="fill: light-dark(rgb(255, 255, 255), rgb(18, 18, 18));"/></g><g><rect x="450" y="126" width="48" height="48" fill="#1192e8" stroke="none" pointer-events="all" style="fill: light-dark(rgb(17, 146, 232), rgb(38, 149, 223));"/></g><g><g fill="#000000" font-family="&quot;Helvetica&quot;" text-anchor="middle" font-size="14px" style="fill: light-dark(rgb(0, 0, 0), rgb(255, 255, 255));"><text x="473.5" y="193.5">Direct Link</text></g></g><g><rect x="462" y="138" width="24" height="24" fill="none" stroke="none" pointer-events="all"/><rect x="462" y="138" width="0" height="0" fill="none" stroke="none" pointer-events="all"/><path d="M 486 146.25 L 483.75 146.25 L 483.75 141.75 C 483.75 140.92 483.07 140.25 482.25 140.25 L 471.75 140.25 C 470.93 140.25 470.25 140.92 470.25 141.75 L 470.25 144.75 L 471.75 144.75 L 471.75 141.75 L 482.25 141.75 L 482.25 152.25 L 471.75 152.25 L 471.75 149.25 L 470.25 149.25 L 470.25 152.25 C 470.25 153.08 470.93 153.75 471.75 153.75 L 482.25 153.75 C 483.07 153.75 483.75 153.08 483.75 152.25 L 483.75 147.75 L 486 147.75 L 486 146.25 Z" fill="#ffffff" stroke="none" pointer-events="all" style="fill: light-dark(rgb(255, 255, 255), rgb(18, 18, 18));"/><path d="M 477.75 150.75 L 477.75 147.75 C 477.75 146.92 477.07 146.25 476.25 146.25 L 465.75 146.25 C 464.93 146.25 464.25 146.92 464.25 147.75 L 464.25 152.25 L 462 152.25 L 462 153.75 L 464.25 153.75 L 464.25 158.25 C 464.25 159.08 464.93 159.75 465.75 159.75 L 476.25 159.75 C 477.07 159.75 477.75 159.08 477.75 158.25 L 477.75 155.25 L 476.25 155.25 L 476.25 158.25 L 465.75 158.25 L 465.75 147.75 L 476.25 147.75 L 476.25 150.75 L 477.75 150.75 Z" fill="#ffffff" stroke="none" pointer-events="all" style="fill: light-dark(rgb(255, 255, 255), rgb(18, 18, 18));"/></g><g><rect x="545" y="313" width="340" height="290" fill="#ffffff" stroke="#000000" pointer-events="all" style="fill: light-dark(#ffffff, var(--ge-dark-color, #121212)); stroke: light-dark(rgb(0, 0, 0), rgb(255, 255, 255));"/></g><g><g transform="translate(-0.5 -0.5)"><switch><foreignObject style="overflow: visible; text-align: left;" pointer-events="none" width="100%" height="100%" requiredFeatures="http://www.w3.org/TR/SVG11/feature#Extensibility"><div xmlns="http://www.w3.org/1999/xhtml" style="display: flex; align-items: unsafe flex-start; justify-content: unsafe flex-start; width: 338px; height: 1px; padding-top: 320px; margin-left: 547px;"><div style="box-sizing: border-box; font-size: 0; text-align: left; color: #000000; "><div style="display: inline-block; font-size: 12px; font-family: &quot;Helvetica&quot;; color: light-dark(#000000, #ffffff); line-height: 1.2; pointer-events: all; white-space: normal; word-wrap: normal; ">ISV 2</div></div></div></foreignObject><text x="547" y="332" fill="light-dark(#000000, #ffffff)" font-family="&quot;Helvetica&quot;" font-size="12px">ISV 2</text></switch></g></g><g><rect x="755" y="323" width="100" height="80" fill="#ffffff" stroke="#000000" pointer-events="all" style="fill: light-dark(#ffffff, var(--ge-dark-color, #121212)); stroke: light-dark(rgb(0, 0, 0), rgb(255, 255, 255));"/></g><g><g transform="translate(-0.5 -0.5)"><switch><foreignObject style="overflow: visible; text-align: left;" pointer-events="none" width="100%" height="100%" requiredFeatures="http://www.w3.org/TR/SVG11/feature#Extensibility"><div xmlns="http://www.w3.org/1999/xhtml" style="display: flex; align-items: unsafe center; justify-content: unsafe center; width: 98px; height: 1px; padding-top: 363px; margin-left: 756px;"><div style="box-sizing: border-box; font-size: 0; text-align: center; color: #000000; "><div style="display: inline-block; font-size: 12px; font-family: &quot;Helvetica&quot;; color: light-dark(#000000, #ffffff); line-height: 1.2; pointer-events: all; white-space: normal; word-wrap: normal; ">Env1</div></div></div></foreignObject><text x="805" y="367" fill="light-dark(#000000, #ffffff)" font-family="&quot;Helvetica&quot;" font-size="12px" text-anchor="middle">Env1</text></switch></g></g><g><rect x="755" y="423" width="100" height="80" fill="#ffffff" stroke="#000000" pointer-events="all" style="fill: light-dark(#ffffff, var(--ge-dark-color, #121212)); stroke: light-dark(rgb(0, 0, 0), rgb(255, 255, 255));"/></g><g><g transform="translate(-0.5 -0.5)"><switch><foreignObject style="overflow: visible; text-align: left;" pointer-events="none" width="100%" height="100%" requiredFeatures="http://www.w3.org/TR/SVG11/feature#Extensibility"><div xmlns="http://www.w3.org/1999/xhtml" style="display: flex; align-items: unsafe center; justify-content: unsafe center; width: 98px; height: 1px; padding-top: 463px; margin-left: 756px;"><div style="box-sizing: border-box; font-size: 0; text-align: center; color: #000000; "><div style="display: inline-block; font-size: 12px; font-family: &quot;Helvetica&quot;; color: light-dark(#000000, #ffffff); line-height: 1.2; pointer-events: all; white-space: normal; word-wrap: normal; ">Env2</div></div></div></foreignObject><text x="805" y="467" fill="light-dark(#000000, #ffffff)" font-family="&quot;Helvetica&quot;" font-size="12px" text-anchor="middle">Env2</text></switch></g></g><g><rect x="755" y="513" width="100" height="80" fill="#ffffff" stroke="#000000" pointer-events="all" style="fill: light-dark(#ffffff, var(--ge-dark-color, #121212)); stroke: light-dark(rgb(0, 0, 0), rgb(255, 255, 255));"/></g><g><g transform="translate(-0.5 -0.5)"><switch><foreignObject style="overflow: visible; text-align: left;" pointer-events="none" width="100%" height="100%" requiredFeatures="http://www.w3.org/TR/SVG11/feature#Extensibility"><div xmlns="http://www.w3.org/1999/xhtml" style="display: flex; align-items: unsafe center; justify-content: unsafe center; width: 98px; height: 1px; padding-top: 553px; margin-left: 756px;"><div style="box-sizing: border-box; font-size: 0; text-align: center; color: #000000; "><div style="display: inline-block; font-size: 12px; font-family: &quot;Helvetica&quot;; color: light-dark(#000000, #ffffff); line-height: 1.2; pointer-events: all; white-space: normal; word-wrap: normal; ">Env3</div></div></div></foreignObject><text x="805" y="557" fill="light-dark(#000000, #ffffff)" font-family="&quot;Helvetica&quot;" font-size="12px" text-anchor="middle">Env3</text></switch></g></g><g><path d="M 500 363 L 500 360.5 Q 500 358 490 358 L 464 358 Q 454 358 454 360.5 L 454 361.75 Q 454 363 464 363 L 748.63 363" fill="none" stroke="#000000" stroke-miterlimit="10" pointer-events="stroke" style="stroke: light-dark(rgb(0, 0, 0), rgb(255, 255, 255));"/><path d="M 753.88 363 L 746.88 366.5 L 748.63 363 L 746.88 359.5 Z" fill="#000000" stroke="#000000" stroke-miterlimit="10" pointer-events="all" style="fill: light-dark(rgb(0, 0, 0), rgb(255, 255, 255)); stroke: light-dark(rgb(0, 0, 0), rgb(255, 255, 255));"/></g><g><path d="M 498 463 L 748.63 463" fill="none" stroke="#000000" stroke-miterlimit="10" pointer-events="stroke" style="stroke: light-dark(rgb(0, 0, 0), rgb(255, 255, 255));"/><path d="M 753.88 463 L 746.88 466.5 L 748.63 463 L 746.88 459.5 Z" fill="#000000" stroke="#000000" stroke-miterlimit="10" pointer-events="all" style="fill: light-dark(rgb(0, 0, 0), rgb(255, 255, 255)); stroke: light-dark(rgb(0, 0, 0), rgb(255, 255, 255));"/></g><g><path d="M 498 553 L 498 550 Q 498 547 488 547 L 464 547 Q 454 547 454 550 L 454 551.5 Q 454 553 464 553 L 748.63 553" fill="none" stroke="#000000" stroke-miterlimit="10" pointer-events="stroke" style="stroke: light-dark(rgb(0, 0, 0), rgb(255, 255, 255));"/><path d="M 753.88 553 L 746.88 556.5 L 748.63 553 L 746.88 549.5 Z" fill="#000000" stroke="#000000" stroke-miterlimit="10" pointer-events="all" style="fill: light-dark(rgb(0, 0, 0), rgb(255, 255, 255)); stroke: light-dark(rgb(0, 0, 0), rgb(255, 255, 255));"/></g><g><rect x="452" y="339" width="48" height="48" fill="#1192e8" stroke="none" pointer-events="all" style="fill: light-dark(rgb(17, 146, 232), rgb(38, 149, 223));"/></g><g><g fill="#000000" font-family="&quot;Helvetica&quot;" text-anchor="middle" font-size="14px" style="fill: light-dark(rgb(0, 0, 0), rgb(255, 255, 255));"><text x="475.5" y="406.5">Direct Link</text></g></g><g><rect x="464" y="351" width="24" height="24" fill="none" stroke="none" pointer-events="all"/><rect x="464" y="351" width="0" height="0" fill="none" stroke="none" pointer-events="all"/><path d="M 488 359.25 L 485.75 359.25 L 485.75 354.75 C 485.75 353.92 485.07 353.25 484.25 353.25 L 473.75 353.25 C 472.93 353.25 472.25 353.92 472.25 354.75 L 472.25 357.75 L 473.75 357.75 L 473.75 354.75 L 484.25 354.75 L 484.25 365.25 L 473.75 365.25 L 473.75 362.25 L 472.25 362.25 L 472.25 365.25 C 472.25 366.08 472.93 366.75 473.75 366.75 L 484.25 366.75 C 485.07 366.75 485.75 366.08 485.75 365.25 L 485.75 360.75 L 488 360.75 L 488 359.25 Z" fill="#ffffff" stroke="none" pointer-events="all" style="fill: light-dark(rgb(255, 255, 255), rgb(18, 18, 18));"/><path d="M 479.75 363.75 L 479.75 360.75 C 479.75 359.92 479.07 359.25 478.25 359.25 L 467.75 359.25 C 466.93 359.25 466.25 359.92 466.25 360.75 L 466.25 365.25 L 464 365.25 L 464 366.75 L 466.25 366.75 L 466.25 371.25 C 466.25 372.08 466.93 372.75 467.75 372.75 L 478.25 372.75 C 479.07 372.75 479.75 372.08 479.75 371.25 L 479.75 368.25 L 478.25 368.25 L 478.25 371.25 L 467.75 371.25 L 467.75 360.75 L 478.25 360.75 L 478.25 363.75 L 479.75 363.75 Z" fill="#ffffff" stroke="none" pointer-events="all" style="fill: light-dark(rgb(255, 255, 255), rgb(18, 18, 18));"/></g><g><rect x="450" y="529" width="48" height="48" fill="#1192e8" stroke="none" pointer-events="all" style="fill: light-dark(rgb(17, 146, 232), rgb(38, 149, 223));"/></g><g><g fill="#000000" font-family="&quot;Helvetica&quot;" text-anchor="middle" font-size="14px" style="fill: light-dark(rgb(0, 0, 0), rgb(255, 255, 255));"><text x="473.5" y="596.5">Direct Link</text></g></g><g><rect x="462" y="541" width="24" height="24" fill="none" stroke="none" pointer-events="all"/><rect x="462" y="541" width="0" height="0" fill="none" stroke="none" pointer-events="all"/><path d="M 486 549.25 L 483.75 549.25 L 483.75 544.75 C 483.75 543.92 483.07 543.25 482.25 543.25 L 471.75 543.25 C 470.93 543.25 470.25 543.92 470.25 544.75 L 470.25 547.75 L 471.75 547.75 L 471.75 544.75 L 482.25 544.75 L 482.25 555.25 L 471.75 555.25 L 471.75 552.25 L 470.25 552.25 L 470.25 555.25 C 470.25 556.08 470.93 556.75 471.75 556.75 L 482.25 556.75 C 483.07 556.75 483.75 556.08 483.75 555.25 L 483.75 550.75 L 486 550.75 L 486 549.25 Z" fill="#ffffff" stroke="none" pointer-events="all" style="fill: light-dark(rgb(255, 255, 255), rgb(18, 18, 18));"/><path d="M 477.75 553.75 L 477.75 550.75 C 477.75 549.92 477.07 549.25 476.25 549.25 L 465.75 549.25 C 464.93 549.25 464.25 549.92 464.25 550.75 L 464.25 555.25 L 462 555.25 L 462 556.75 L 464.25 556.75 L 464.25 561.25 C 464.25 562.08 464.93 562.75 465.75 562.75 L 476.25 562.75 C 477.07 562.75 477.75 562.08 477.75 561.25 L 477.75 558.25 L 476.25 558.25 L 476.25 561.25 L 465.75 561.25 L 465.75 550.75 L 476.25 550.75 L 476.25 553.75 L 477.75 553.75 Z" fill="#ffffff" stroke="none" pointer-events="all" style="fill: light-dark(rgb(255, 255, 255), rgb(18, 18, 18));"/></g><g><rect x="450" y="439" width="48" height="48" fill="#1192e8" stroke="none" pointer-events="all" style="fill: light-dark(rgb(17, 146, 232), rgb(38, 149, 223));"/></g><g><g fill="#000000" font-family="&quot;Helvetica&quot;" text-anchor="middle" font-size="14px" style="fill: light-dark(rgb(0, 0, 0), rgb(255, 255, 255));"><text x="473.5" y="506.5">Direct Link</text></g></g><g><rect x="462" y="451" width="24" height="24" fill="none" stroke="none" pointer-events="all"/><rect x="462" y="451" width="0" height="0" fill="none" stroke="none" pointer-events="all"/><path d="M 486 459.25 L 483.75 459.25 L 483.75 454.75 C 483.75 453.92 483.07 453.25 482.25 453.25 L 471.75 453.25 C 470.93 453.25 470.25 453.92 470.25 454.75 L 470.25 457.75 L 471.75 457.75 L 471.75 454.75 L 482.25 454.75 L 482.25 465.25 L 471.75 465.25 L 471.75 462.25 L 470.25 462.25 L 470.25 465.25 C 470.25 466.08 470.93 466.75 471.75 466.75 L 482.25 466.75 C 483.07 466.75 483.75 466.08 483.75 465.25 L 483.75 460.75 L 486 460.75 L 486 459.25 Z" fill="#ffffff" stroke="none" pointer-events="all" style="fill: light-dark(rgb(255, 255, 255), rgb(18, 18, 18));"/><path d="M 477.75 463.75 L 477.75 460.75 C 477.75 459.92 477.07 459.25 476.25 459.25 L 465.75 459.25 C 464.93 459.25 464.25 459.92 464.25 460.75 L 464.25 465.25 L 462 465.25 L 462 466.75 L 464.25 466.75 L 464.25 471.25 C 464.25 472.08 464.93 472.75 465.75 472.75 L 476.25 472.75 C 477.07 472.75 477.75 472.08 477.75 471.25 L 477.75 468.25 L 476.25 468.25 L 476.25 471.25 L 465.75 471.25 L 465.75 460.75 L 476.25 460.75 L 476.25 463.75 L 477.75 463.75 Z" fill="#ffffff" stroke="none" pointer-events="all" style="fill: light-dark(rgb(255, 255, 255), rgb(18, 18, 18));"/></g></g><switch><g requiredFeatures="http://www.w3.org/TR/SVG11/feature#Extensibility"/><a transform="translate(0,-5)" xlink:href="https://www.drawio.com/doc/faq/svg-export-text-problems" target="_blank"><text text-anchor="middle" font-size="10px" x="50%" y="100%">Text is not SVG - cannot display</text></a></switch></svg>